<svg xmlns="http://www.w3.org/2000/svg" width="512" height="512" viewBox="0 0 512 512">
  <defs>
    <linearGradient id="grad" x1="0%" y1="0%" x2="100%" y2="100%">
      <stop offset="0%" style="stop-color:#1565C0;stop-opacity:1" />
      <stop offset="50%" style="stop-color:#1976D2;stop-opacity:1" />
      <stop offset="100%" style="stop-color:#0D47A1;stop-opacity:1" />
    </linearGradient>
  </defs>

  <!-- Background -->
  <rect width="512" height="512" rx="115" fill="url(#grad)"/>

  <!-- 4me Logo -->
  <g fill="white">
    <!-- "4" -->
    <path d="M120 180 L120 260 L180 260 L180 180 L220 180 L220 320 L180 320 L180 290 L80 290 L80 180 L120 180 M120 220 L120 260 L80 260 L80 220 Z"/>

    <!-- "m" -->
    <path d="M250 250 L250 320 L290 320 L290 250 Q290 230 310 230 Q330 230 330 250 L330 320 L370 320 L370 250 Q370 230 390 230 Q410 230 410 250 L410 320 L450 320 L450 240 Q450 210 420 210 Q400 210 390 220 Q380 210 360 210 Q340 210 330 220 Q320 210 300 210 Q270 210 260 230 L260 215 L250 215 Z"/>

    <!-- "e" -->
    <path d="M280 380 L280 400 Q280 430 310 430 Q340 430 340 400 L340 380 Q340 350 310 350 Q280 350 280 380 M310 370 Q320 370 320 380 L320 400 Q320 410 310 410 Q300 410 300 400 L300 380 Q300 370 310 370 Z"/>
  </g>

  <!-- Checklist Icon -->
  <g fill="white" opacity="0.9">
    <rect x="360" y="140" width="100" height="20" rx="10"/>
    <rect x="360" y="180" width="100" height="20" rx="10"/>
    <rect x="360" y="220" width="100" height="20" rx="10"/>
    <path d="M340 150 L345 155 L355 140" stroke="white" stroke-width="4" fill="none" stroke-linecap="round" stroke-linejoin="round"/>
    <path d="M340 190 L345 195 L355 180" stroke="white" stroke-width="4" fill="none" stroke-linecap="round" stroke-linejoin="round"/>
  </g>
</svg>
